<svg id="Ebene_1" data-name="Ebene 1" xmlns="http://www.w3.org/2000/svg" viewBox="0 0 2834.65 2834.65"><defs><style>.cls-1{fill:none;}.cls-2{fill:#579dff;}.cls-3{fill:#6d6d6d;}</style></defs><title>Kesares_Logo_Clean_qd</title><rect class="cls-1" width="2834.65" height="2834.65"/><path class="cls-2" d="M1295.45,1516.34v128.85h42q42,0,59.88,16.17t17.88,42.29q0,25.55-17.88,41.72t-59.88,16.17H1160.93q-42,0-59.88-16.17t-17.88-42.29q0-25.55,18.17-41.72t59.59-16.17h18.17V1190h-18.17q-42,0-59.88-16.18t-17.88-42.29q0-26.1,17.88-42.28t59.88-16.18l176.53.57q42,0,59.88,15.89t17.88,42q0,26.12-17.88,42.29T1337.46,1190h-42v172.54l206.61-177.65q-18.18-13.06-25-24.41t-6.82-27.81q0-26.69,17.88-43.14t59.88-16.46l118.63.57q42,0,59.88,15.89t17.88,42q0,25.54-17.88,42t-55.9,16.47l-208.88,182.76q58.46,33.49,109.83,102.17t91.1,170.28h31.22q41.41,0,59.31,16.17t17.88,42.29q0,25.55-17.6,41.72t-59.59,16.17H1588.33a1764.45,1764.45,0,0,0-79.46-165.73q-35.2-64.14-66.69-93.37T1367,1455.61Z" transform="translate(0 0.03)"/><path class="cls-2" d="M889,1090.27,554.88,1276.06l126.9,70.33,267.15-148.06q29.69-16.62,39.48-29.69t9.8-33.25q0-25.52-18.41-43.93t-43.34-18.41Q921,1073.05,889,1090.27Z" transform="translate(0 0.03)"/><path class="cls-3" d="M948.93,1635.31l-104.77-58.07q-6.31-3.06-13.38-7L606.63,1445.6l-3.86-2.13-.16-.1-174.29-96.93-78.68,43.75c-20.88,11.62-20.88,41.65,0,53.26L889,1743.37q32.07,17.82,48.1,17.81,24.33,0,42.74-18.7t18.41-44.23q0-20.18-9.8-33.25T948.93,1635.31Z" transform="translate(0 0.03)"/><path class="cls-3" d="M1885.72,1198.33l113.91,63.13c3.26,1.59,6.65,3.33,10.22,5.25l217.46,120.93,4.57,2.53.19.12,174.26,96.91,78.68-43.75c20.88-11.61,20.88-41.64,0-53.26l-539.32-299.92q-32.07-17.22-47.5-17.22-24.95,0-43.34,18.41t-18.41,43.93q0,20.19,9.8,33.25T1885.72,1198.33Z" transform="translate(0 0.03)"/><path class="cls-2" d="M2279.76,1557.59l-126.9-70.33-267.14,148q-29.68,16.64-39.48,29.69t-9.8,33.25q0,25.53,18.41,44.23t42.74,18.7q16,0,48.1-17.81Z" transform="translate(0 0.03)"/></svg>